<svg width="72" height="88" viewBox="0 0 72 88" fill="none" xmlns="http://www.w3.org/2000/svg">
<path d="M42.8006 14.6204C42.7955 14.5467 41.9212 2.00052 36.0008 2C30.0801 1.99948 29.2045 14.5466 29.1994 14.6204C29.1992 14.6226 29.1994 14.6218 29.1994 14.6241V33.8451C29.1994 33.8755 29.1856 33.9041 29.1619 33.9231L2.03743 55.6803C2.01377 55.6993 2 55.728 2 55.7583V65.6436C2 65.7183 2.07893 65.7666 2.14546 65.7326L29.0539 51.9984C29.1204 51.9644 29.1994 52.0127 29.1994 52.0874L29.199 72.0789C29.199 72.1036 29.1899 72.1274 29.1734 72.1457L22.4248 79.6611C22.4083 79.6795 22.3992 79.7033 22.3992 79.728V85.8299C22.3992 85.9062 22.4812 85.9544 22.5478 85.9172L35.9518 78.4546C35.9821 78.4378 36.0189 78.4378 36.0491 78.4546L49.4515 85.9172C49.5181 85.9543 49.6001 85.9061 49.6001 85.8299V79.7279C49.6001 79.7033 49.591 79.6795 49.5745 79.6611L42.8259 72.1457C42.8094 72.1274 42.8003 72.1036 42.8003 72.0789L42.8006 52.0874C42.8006 52.0127 42.8795 51.9644 42.9461 51.9984L69.8545 65.7326C69.9211 65.7666 70 65.7183 70 65.6436V55.7583C70 55.728 69.9862 55.6993 69.9626 55.6803L42.8381 33.9231C42.8144 33.9041 42.8006 33.8755 42.8006 33.8451V14.6241C42.8006 14.6218 42.8008 14.6226 42.8006 14.6204Z"
stroke="#C0C0C0" stroke-width="2.5"/>
</svg>
