<svg width="57" height="72" viewBox="0 0 57 72" fill="none" xmlns="http://www.w3.org/2000/svg">
<path d="M28.4993 12.1486C31.4267 12.149 33.8001 9.87699 33.8001 7.07432C33.8001 4.27185 31.4272 2 28.5001 2C25.573 2 23.2001 4.27185 23.2001 7.07432C23.2001 9.87659 25.5724 12.1482 28.4993 12.1486ZM28.4993 12.1486C21.5571 12.1486 15.7047 16.3524 12.6 22.2973C10.1594 26.9706 7.7183 46.7079 7.34771 49.7983C7.31537 50.068 7.17856 50.298 6.9688 50.4706C5.80984 51.4242 2.00054 54.7887 2 57.8176C1.99981 58.916 9.28364 59.5389 20.55 59.6862M28.4993 12.1486C35.4411 12.1489 41.2954 16.3526 44.4 22.2973C46.8405 26.9705 49.2805 46.7072 49.651 49.7981C49.6833 50.0679 49.8202 50.2981 50.0301 50.4707C51.1895 51.4242 55 54.7885 55 57.8176C55 58.916 47.7162 59.5388 36.45 59.6862M20.55 59.6862C20.55 59.6862 19.9822 65.0758 23.2 67.9662C26.2189 70.6779 30.7811 70.6779 33.8 67.9662C37.0178 65.0758 36.45 59.6862 36.45 59.6862M20.55 59.6862C24.0407 59.7318 32.9593 59.7318 36.45 59.6862"
stroke="#C0C0C0" stroke-width="2.75"/>
</svg>
