<svg width="73" height="70" viewBox="0 0 73 70" fill="none" xmlns="http://www.w3.org/2000/svg">
<path d="M36.0892 68V9.85794M36.0892 68C36.0892 68 43.1407 63.5076 48.7841 61.7705C55.5049 59.7017 60.5748 60.0789 61.37 60.1558C61.4297 60.1615 61.4789 60.1143 61.4789 60.0543V5.62752M36.0892 68C36.0892 68 47.0064 65.5009 54.4135 64.7363C64.06 63.7406 69.9055 65.8396 70.861 66.2173C70.9281 66.2438 71 66.1934 71 66.1213V8.18396C71 8.15151 70.9857 8.12211 70.9585 8.10431C70.5883 7.86153 67.7177 6.10495 61.4789 5.62752M36.0892 68C36.0892 68 29.0856 63.3507 23.3945 61.7705C16.1194 59.7505 12.5429 60.0625 11.8741 60.1498C11.8121 60.158 11.7576 60.1095 11.7576 60.0469V5.62752M36.0892 68C36.0892 68 25.8519 65.5009 18.4448 64.7363C8.80392 63.7412 3.07736 65.6846 2.13757 66.0371C2.07074 66.0622 2 66.0119 2 65.9406V8.00556C2 7.97024 2.0168 7.93866 2.04772 7.92159C2.45852 7.69483 5.53393 6.10378 11.7576 5.62752M36.0892 9.85794C36.0892 9.85794 41.881 5.38304 46.6683 3.62844C54.3347 0.818603 60.6824 2.45366 61.4095 2.65782C61.4518 2.6697 61.4789 2.70792 61.4789 2.75188V5.62752M36.0892 9.85794C36.0892 9.85794 30.3394 5.26882 25.5103 3.62844C17.284 0.834096 12.4141 2.43576 11.8193 2.65431C11.7812 2.6683 11.7576 2.70437 11.7576 2.74493V5.62752"
stroke="#C0C0C0" stroke-width="2.5"/>
</svg>
