<svg width="84" height="44" viewBox="0 0 84 44" fill="none" xmlns="http://www.w3.org/2000/svg">
<path d="M39.4993 19.1655C39.4993 19.1655 42.5728 19.1344 43.8713 19.855C45.7418 20.893 46.0325 22.1551 46.0576 24.1645C46.0799 25.9417 45.393 27.2096 43.8713 28.3047C42.4518 29.3263 39.4993 29.2298 39.4993 29.2298M39.4993 19.1655V8.75645M39.4993 19.1655V29.2298M39.4993 19.1655C39.4993 19.1655 36.7391 19.1665 35.3836 18.3036C33.687 17.2235 32.868 15.7186 32.9409 13.8217C33.0092 12.0442 33.8329 11.0917 35.3836 10.0294C36.7264 9.10955 39.4993 8.75645 39.4993 8.75645M32.2074 25.8883C32.2074 25.8883 34.1935 27.6251 35.3836 28.3047C36.7894 29.1074 39.4993 29.2298 39.4993 29.2298M46.6544 12.0979C46.6544 12.0979 44.8803 10.6978 43.8713 10.0294C42.3941 9.05087 39.4993 8.75645 39.4993 8.75645M39.4993 8.75645V5.20276M39.4993 29.2298V32.7835" 
stroke="#C0C0C0" stroke-width="2.5"/>
<path d="M7.61578 36.6175H72.4091C74.6182 36.6175 76.4091 34.8267 76.4091 32.6175V4.59806M7.61578 36.6175H6C3.79086 36.6175 2 34.8267 2 32.6175V5.26269C2 3.05355 3.79086 1.2627 6 1.2627H73.0737C74.9158 1.2627 76.4091 2.75599 76.4091 4.59806V4.59806M7.61578 36.6175V37.9771C7.61578 40.1862 9.40664 41.9771 11.6158 41.9771H78.0248C80.234 41.9771 82.0248 40.1862 82.0248 37.9771V8.59806C82.0248 6.38892 80.234 4.59806 78.0248 4.59806H76.4091" 
stroke="#C0C0C0" stroke-width="2.5"/>
</svg>
