<svg width="201" height="42" viewBox="0 0 181 42" fill="none" xmlns="http://www.w3.org/2000/svg">
<g filter="url(#filter0_d)">
<path d="M10.1391 32.4351H26.9986L25.8528 38.4713H1L7.90204 2.00371H15.8953L10.1391 32.4351Z" fill="#CEE2FF"/>
<path d="M38.2656 38.4713H30.5178L35.6466 11.3711H43.3944L38.2656 38.4713ZM36.5469 4.4833C36.5105 3.36457 36.9106 2.43785 37.7472 1.70315C38.5839 0.968461 39.5933 0.601113 40.7754 0.601113C41.9394 0.567718 42.9488 0.893321 43.8036 1.57792C44.6584 2.26252 45.104 3.1475 45.1404 4.23284C45.1767 5.26809 44.7948 6.16976 43.9946 6.93785C43.2125 7.70594 42.1849 8.10668 40.9118 8.14008C39.766 8.17347 38.7566 7.85622 37.8837 7.18832C37.0289 6.52041 36.5833 5.61874 36.5469 4.4833Z" fill="#CEE2FF"/>
<path d="M59.4628 10.8451C62.209 10.9119 64.4279 11.9221 66.1193 13.8757L69.0111 0H76.7315L69.4748 38.4713H62.6001L63.0366 35.5659C60.8359 37.9202 58.2715 39.064 55.3434 38.9972C53.5065 38.9805 51.8969 38.5381 50.5147 37.6698C49.1324 36.8015 48.0594 35.5575 47.2955 33.9379C46.5499 32.3015 46.1406 30.4815 46.0679 28.4778C46.0133 27.4258 46.0406 26.4072 46.1497 25.4221L46.3134 24.295C46.7499 21.5232 47.5865 19.0854 48.8233 16.9815C50.0782 14.8776 51.6059 13.3163 53.4064 12.2978C55.2252 11.2792 57.2439 10.795 59.4628 10.8451ZM53.8702 25.4221C53.7247 26.6911 53.6792 27.7598 53.7338 28.628C53.9157 31.5668 55.207 33.0612 57.6077 33.1113C59.772 33.1948 61.6543 32.2598 63.2548 30.3061L65.3554 19.5362C64.6461 17.7495 63.2275 16.8145 61.0996 16.731C59.2263 16.6809 57.6622 17.3488 56.4073 18.7347C55.1706 20.1039 54.3249 22.333 53.8702 25.4221Z" fill="#CEE2FF"/>
<path d="M92.5271 10.8701C95.1279 10.9035 97.3649 11.5213 99.2382 12.7236C101.13 13.9091 102.512 15.5538 103.385 17.6577C104.276 19.7449 104.594 22.0659 104.34 24.6206C103.921 28.9286 102.285 32.4184 99.4292 35.09C96.592 37.7449 93.0818 39.039 88.8988 38.9722C86.3344 38.9388 84.1155 38.3377 82.2422 37.1688C80.369 35.9833 78.9867 34.347 78.0956 32.2598C77.2044 30.1726 76.8861 27.8683 77.1407 25.347C77.6136 20.872 79.2686 17.3154 82.1058 14.6772C84.9431 12.039 88.4168 10.7699 92.5271 10.8701ZM84.7521 27.9267C84.7885 29.5297 85.1977 30.7987 85.9797 31.7338C86.7618 32.6521 87.8621 33.128 89.2807 33.1614C91.645 33.2282 93.5001 32.2347 94.846 30.1809C96.1918 28.1104 96.8193 25.397 96.7284 22.0408C96.6556 20.4379 96.2282 19.1605 95.4462 18.2087C94.6823 17.2403 93.582 16.7393 92.1452 16.7059C89.8536 16.6392 88.0167 17.6327 86.6345 19.6865C85.2704 21.7236 84.643 24.4703 84.7521 27.9267Z" fill="#CEE2FF"/>
<path d="M123.682 30.8321C123.973 29.4963 122.963 28.5278 120.654 27.9267L118.171 27.3507C112.297 25.8646 109.441 23.2431 109.605 19.4861C109.696 16.9314 110.923 14.8525 113.288 13.2495C115.67 11.6299 118.535 10.8367 121.881 10.8701C125.21 10.9035 127.901 11.7134 129.956 13.2996C132.012 14.8859 133.057 16.9982 133.094 19.6364L125.455 19.6113C125.491 17.2904 124.237 16.1132 121.69 16.0798C120.49 16.0798 119.444 16.3553 118.553 16.9063C117.68 17.4573 117.144 18.2004 116.943 19.1354C116.671 20.4713 117.771 21.4147 120.244 21.9657L121.336 22.1911C123.845 22.7421 125.764 23.3766 127.092 24.0946C128.42 24.7959 129.438 25.6726 130.147 26.7245C130.875 27.7765 131.211 29.0371 131.157 30.5065C131.102 32.2264 130.493 33.7291 129.329 35.0149C128.183 36.3006 126.601 37.2941 124.582 37.9954C122.581 38.6967 120.472 39.0223 118.253 38.9722C114.979 38.9388 112.251 38.0789 110.069 36.3924C107.886 34.6893 106.777 32.4935 106.74 29.8052L113.997 29.8553C114.07 32.4434 115.579 33.7542 118.526 33.7876C119.944 33.7876 121.108 33.5204 122.018 32.9861C122.945 32.4518 123.5 31.7338 123.682 30.8321Z" fill="#CEE2FF"/>
<path d="M150.335 4.70872L149.053 11.3711H153.964L152.954 16.6809H148.044L145.534 30.256C145.425 31.1076 145.497 31.7588 145.752 32.2097C146.007 32.6605 146.625 32.9026 147.607 32.936C147.898 32.9527 148.68 32.911 149.953 32.8108L149.408 38.346C148.044 38.7635 146.57 38.9555 144.988 38.9221C142.46 38.8887 140.578 38.1624 139.341 36.7431C138.104 35.3238 137.595 33.4035 137.813 30.9824L140.35 16.6809H136.176L137.186 11.3711H141.36L142.615 4.70872H150.335Z" fill="#CEE2FF"/>
<path d="M170.414 38.4713C170.177 37.7867 170.077 36.9685 170.114 36.0167C167.895 38.0538 165.385 39.039 162.584 38.9722C160.002 38.9388 157.856 38.1707 156.146 36.6679C154.455 35.1484 153.663 33.2783 153.773 31.0575C153.9 28.1021 155.246 25.8395 157.81 24.27C160.393 22.6837 163.848 21.8905 168.177 21.8905L171.778 21.9406L172.16 20.3126C172.269 19.7616 172.296 19.2356 172.242 18.7347C172.151 17.9499 171.823 17.3405 171.26 16.9063C170.714 16.4555 169.986 16.2217 169.077 16.205C167.877 16.1716 166.858 16.4471 166.022 17.0315C165.185 17.5993 164.648 18.4258 164.412 19.5111L156.692 19.5362C156.819 16.9481 158.11 14.8525 160.565 13.2495C163.039 11.6299 166.085 10.8367 169.705 10.8701C173.051 10.9369 175.67 11.8553 177.561 13.6252C179.453 15.3785 180.244 17.641 179.935 20.4128L177.671 33.3868L177.534 34.9898C177.498 36.1753 177.652 37.1772 177.998 37.9954L177.971 38.4713H170.414ZM164.494 33.487C166.713 33.5538 168.65 32.6688 170.305 30.8321L171.26 26.1484L168.586 26.1234C165.749 26.1902 163.703 26.9833 162.448 28.5028C161.993 29.0538 161.711 29.7301 161.602 30.5316C161.457 31.4332 161.657 32.1512 162.202 32.6855C162.766 33.2032 163.53 33.4703 164.494 33.487Z" fill="#CEE2FF"/>
</g>
<defs>
<filter id="filter0_d" x="0" y="0" width="181" height="42" filterUnits="userSpaceOnUse" color-interpolation-filters="sRGB">
<feFlood flood-opacity="0" result="BackgroundImageFix"/>
<feColorMatrix in="SourceAlpha" type="matrix" values="0 0 0 0 0 0 0 0 0 0 0 0 0 0 0 0 0 0 127 0"/>
<feOffset dy="2"/>
<feGaussianBlur stdDeviation="0.5"/>
<feColorMatrix type="matrix" values="0 0 0 0 0 0 0 0 0 0 0 0 0 0 0 0 0 0 0.25 0"/>
<feBlend mode="normal" in2="BackgroundImageFix" result="effect1_dropShadow"/>
<feBlend mode="normal" in="SourceGraphic" in2="effect1_dropShadow" result="shape"/>
</filter>
</defs>
</svg>
