<svg width="360" height="95" viewBox="0 0 360 95" fill="none" xmlns="http://www.w3.org/2000/svg">
<g filter="url(#filter0_d)">
<path d="M23.7676 71.0285H56.5448L54.3172 83.8747H6L19.4185 6.26431H34.9585L23.7676 71.0285Z" fill="white" fill-opacity="0.8"/>
<path d="M78.4493 83.8747H63.3866L73.3577 26.2H88.4204L78.4493 83.8747ZM75.1079 11.5414C75.0372 9.16049 75.8151 7.18824 77.4416 5.62466C79.0681 4.06108 81.0305 3.27929 83.3288 3.27929C85.5917 3.20822 87.5541 3.90117 89.2159 5.35814C90.8778 6.81512 91.744 8.69852 91.8148 11.0084C91.8855 13.2116 91.143 15.1305 89.5872 16.7652C88.0668 18.3998 86.069 19.2527 83.5939 19.3238C81.3664 19.3948 79.404 18.7196 77.7068 17.2982C76.0449 15.8768 75.1786 13.9578 75.1079 11.5414Z" fill="white" fill-opacity="0.8"/>
<path d="M119.659 25.0806C124.999 25.2227 129.312 27.3726 132.601 31.5303L138.223 2H153.232L139.124 83.8747H125.759L126.607 77.6915C122.329 82.702 117.344 85.1363 111.651 84.9941C108.08 84.9586 104.95 84.0169 102.263 82.169C99.5759 80.3211 97.4898 77.6737 96.0047 74.2267C94.555 70.7442 93.7595 66.8708 93.618 62.6065C93.512 60.3677 93.565 58.2 93.7772 56.1034L94.0954 53.7047C94.944 47.8058 96.5705 42.6175 98.9748 38.14C101.415 33.6625 104.385 30.3399 107.885 28.1722C111.421 26.0045 115.346 24.974 119.659 25.0806ZM108.787 56.1034C108.504 58.8041 108.416 61.0784 108.522 62.9263C108.875 69.1806 111.386 72.3611 116.053 72.4677C120.261 72.6454 123.92 70.6554 127.032 66.4977L131.116 43.577C129.737 39.7747 126.979 37.7847 122.842 37.607C119.2 37.5004 116.159 38.9218 113.719 41.8713C111.315 44.7852 109.671 49.5293 108.787 56.1034Z" fill="white" fill-opacity="0.8"/>
<path d="M183.941 25.1339C188.997 25.2049 193.346 26.5198 196.988 29.0784C200.665 31.6014 203.353 35.1017 205.05 39.5792C206.783 44.0212 207.401 48.9607 206.906 54.3977C206.093 63.566 202.911 70.993 197.359 76.6787C191.844 82.3289 185.019 85.083 176.887 84.9408C171.901 84.8697 167.588 83.5904 163.946 81.1029C160.304 78.5799 157.617 75.0974 155.884 70.6554C154.152 66.2134 153.533 61.3094 154.028 55.9435C154.947 46.4199 158.165 38.8507 163.681 33.2361C169.197 27.6214 175.95 24.9207 183.941 25.1339ZM168.825 61.4338C168.896 64.8453 169.692 67.546 171.212 69.536C172.732 71.4905 174.872 72.5032 177.63 72.5743C182.226 72.7165 185.833 70.6021 188.449 66.2312C191.066 61.8247 192.286 56.0501 192.109 48.9074C191.967 45.496 191.136 42.7775 189.616 40.7519C188.131 38.6908 185.992 37.6247 183.198 37.5537C178.743 37.4115 175.172 39.5259 172.485 43.8968C169.833 48.2322 168.613 54.0779 168.825 61.4338Z" fill="white" fill-opacity="0.8"/>
<path d="M244.51 67.6171C245.076 64.7742 243.113 62.7131 238.623 61.4338L233.796 60.2078C222.376 57.0451 216.824 51.466 217.143 43.4704C217.319 38.0334 219.706 33.6092 224.303 30.1977C228.935 26.7508 234.503 25.0628 241.009 25.1339C247.48 25.2049 252.713 26.9284 256.709 30.3044C260.704 33.6803 262.737 38.1756 262.808 43.7902L247.957 43.7369C248.028 38.7974 245.588 36.2922 240.638 36.2211C238.304 36.2211 236.271 36.8074 234.539 37.9801C232.842 39.1528 231.799 40.7341 231.41 42.7242C230.879 45.567 233.018 47.5748 237.827 48.7475L239.949 49.2272C244.828 50.3999 248.558 51.7503 251.14 53.2783C253.721 54.7708 255.701 56.6365 257.08 58.8752C258.494 61.114 259.148 63.7969 259.042 66.9241C258.936 70.5843 257.752 73.7825 255.489 76.5188C253.261 79.2551 250.185 81.3695 246.26 82.862C242.371 84.3545 238.269 85.0474 233.955 84.9408C227.591 84.8697 222.287 83.0396 218.044 79.4505C213.801 75.8259 211.644 71.1529 211.574 65.4316L225.682 65.5382C225.823 71.0463 228.758 73.8358 234.486 73.9069C237.244 73.9069 239.507 73.3383 241.275 72.2012C243.078 71.064 244.156 69.536 244.51 67.6171Z" fill="white" fill-opacity="0.8"/>
<path d="M296.328 12.0211L293.835 26.2H303.382L301.419 37.5004H291.872L286.993 66.3911C286.781 68.2034 286.922 69.5893 287.417 70.5488C287.912 71.5082 289.114 72.0235 291.024 72.0946C291.59 72.1301 293.11 72.0413 295.585 71.8281L294.524 83.6082C291.872 84.4966 289.008 84.9053 285.932 84.8342C281.017 84.7631 277.358 83.2173 274.953 80.1968C272.549 77.1762 271.559 73.0896 271.983 67.9369L276.916 37.5004H268.801L270.763 26.2H278.878L281.318 12.0211H296.328Z" fill="white" fill-opacity="0.8"/>
<path d="M335.363 83.8747C334.904 82.4178 334.709 80.6765 334.78 78.651C330.466 82.9863 325.587 85.083 320.141 84.9408C315.121 84.8697 310.948 83.2351 307.625 80.0369C304.336 76.8031 302.798 72.8231 303.01 68.0968C303.258 61.8069 305.874 56.9918 310.86 53.6514C315.881 50.2755 322.599 48.5876 331.014 48.5876L338.015 48.6942L338.758 45.2294C338.97 44.0567 339.023 42.9374 338.917 41.8713C338.74 40.2011 338.103 38.904 337.007 37.9801C335.947 37.0206 334.532 36.5231 332.764 36.4876C330.431 36.4165 328.451 37.0029 326.824 38.2466C325.198 39.4548 324.155 41.2139 323.695 43.5237L308.685 43.577C308.933 38.0689 311.443 33.6092 316.217 30.1977C321.025 26.7508 326.948 25.0628 333.984 25.1339C340.49 25.276 345.582 27.2305 349.259 30.9973C352.936 34.7286 354.474 39.5437 353.873 45.4426L349.471 73.0541L349.206 76.4655C349.135 78.9885 349.436 81.1207 350.108 82.862L350.055 83.8747H335.363ZM323.854 73.2673C328.168 73.4094 331.933 71.526 335.151 67.6171L337.007 57.6492L331.81 57.5959C326.294 57.7381 322.316 59.426 319.876 62.6598C318.992 63.8325 318.444 65.2717 318.232 66.9774C317.949 68.8963 318.338 70.4244 319.399 71.5615C320.495 72.6632 321.98 73.2317 323.854 73.2673Z" fill="white" fill-opacity="0.8"/>
</g>
<defs>
<filter id="filter0_d" x="0" y="0" width="360" height="95" filterUnits="userSpaceOnUse" color-interpolation-filters="sRGB">
<feFlood flood-opacity="0" result="BackgroundImageFix"/>
<feColorMatrix in="SourceAlpha" type="matrix" values="0 0 0 0 0 0 0 0 0 0 0 0 0 0 0 0 0 0 127 0"/>
<feOffset dy="4"/>
<feGaussianBlur stdDeviation="3"/>
<feColorMatrix type="matrix" values="0 0 0 0 0 0 0 0 0 0 0 0 0 0 0 0 0 0 0.25 0"/>
<feBlend mode="normal" in2="BackgroundImageFix" result="effect1_dropShadow"/>
<feBlend mode="normal" in="SourceGraphic" in2="effect1_dropShadow" result="shape"/>
</filter>
</defs>
</svg>
